<svg xmlns="http://www.w3.org/2000/svg" xmlns:xlink="http://www.w3.org/1999/xlink" xmlns:lucid="lucid" width="966.78" height="709.67"><g transform="translate(1.1297749589158883 -181.16666666666652)" lucid:page-tab-id="0_0"><path d="M316.27 536c0 44.18-35.82 80-80 80-44.2 0-80-35.82-80-80s35.8-80 80-80c44.18 0 80 35.82 80 80zM316.27 282.67c0 44.18-35.82 80-80 80-44.2 0-80-35.82-80-80 0-44.2 35.8-80 80-80 44.18 0 80 35.8 80 80zM316.27 789.33c0 44.2-35.82 80-80 80-44.2 0-80-35.8-80-80 0-44.18 35.8-80 80-80 44.18 0 80 35.82 80 80zM645.43 536c0 44.18-35.82 80-80 80s-80-35.82-80-80 35.82-80 80-80 80 35.82 80 80zM944.15 536c0 44.18-35.8 80-80 80-44.18 0-80-35.82-80-80s35.82-80 80-80c44.2 0 80 35.82 80 80z" stroke="#3a414a" stroke-width="3" fill="#fff"/><path d="M137.34 284l-1.8.26-4.52.86-4.44 1.04-4.36 1.22-4.3 1.4-4.28 1.6-4.23 1.76-4.2 1.98-4.2 2.2-4.17 2.4-4.2 2.67-4.2 2.92-4.22 3.2-4.24 3.52-4.3 3.86-4.3 4.24-4.38 4.65-4.42 5.1-4.46 5.65-4.5 6.2-4.56 6.87-4.6 7.57-4.58 8.36-4.6 9.25-4.55 10.25-4.46 11.3-4.33 12.44-4.1 13.65-3.83 14.9-3.43 16.16-2.92 17.34L5.3 487.2l-1.6 19.18-.83 19.7v19.88l.83 19.7 1.6 19.18 2.32 18.36 2.93 17.33 3.43 16.15 3.82 14.9 4.13 13.66 4.32 12.44 4.47 11.3 4.55 10.23 4.6 9.26 4.6 8.37 4.58 7.57 4.55 6.86 4.5 6.2 4.47 5.64 4.42 5.12 4.36 4.65 4.32 4.24 4.3 3.87 4.24 3.5 4.22 3.22 4.2 2.9 4.2 2.67 4.2 2.42 4.18 2.18 4.2 1.98 4.23 1.78 4.27 1.6 4.3 1.38 4.37 1.22 4.43 1.04 4.52.87 1.8.26" stroke="#3a414a" stroke-width="3" stroke-linejoin="round" fill="none"/><path d="M151.77 282.9l-12.4 8.46-1.12-14.96zM151.78 789.1l-13.53 6.5 1.14-14.96z" stroke="#3a414a" stroke-width="3" fill="#3a414a"/><path d="M147.33 325.87l-.46.34-2.42 1.98-2.38 2.1-2.33 2.25-2.3 2.4-2.25 2.56-2.22 2.73-2.16 2.92-2.1 3.1-2.05 3.32-1.97 3.52-1.9 3.72-1.8 3.96-1.7 4.18-1.57 4.4-1.44 4.63-1.3 4.82-1.1 5.03-.94 5.2-.72 5.34-.5 5.45-.28 5.53-.05 5.55.2 5.55.4 5.5.64 5.38.84 5.27 1.04 5.1 1.22 4.92 1.37 4.7 1.54 4.5 1.64 4.28 1.76 4.05 1.86 3.83 1.94 3.62 2.02 3.4 2.08 3.18 2.14 3 2.18 2.8 2.24 2.65 2.28 2.47 2.32 2.3 2.36 2.17 2.4 2 1.47 1.15" stroke="#3a414a" stroke-width="3" stroke-linejoin="round" fill="none"/><path d="M159.77 318.53l-7.38 13.06-7.63-12.93zM159.77 500.1l-15-.15 7.63-12.92z" stroke="#3a414a" stroke-width="3" fill="#3a414a"/><path d="M148.5 743.9l-2.38-2-2.84-2.6-2.83-2.8-2.83-3.08-2.83-3.3-2.8-3.6-2.8-3.9-2.73-4.18-2.68-4.5-2.6-4.82-2.5-5.13-2.38-5.45-2.22-5.73-2.03-5.98-1.82-6.2-1.58-6.35-1.32-6.46-1.05-6.5-.77-6.45-.5-6.37-.2-6.2.04-6 .28-5.76.5-5.48.7-5.2.86-4.9 1.02-4.6 1.14-4.3 1.25-4.04 1.36-3.77 1.42-3.52 1.5-3.28 1.54-3.06 1.6-2.86 1.64-2.67 1.68-2.5 1.72-2.32 1.76-2.2 1.8-2.03 1.82-1.92 1.86-1.8 1.9-1.68 1.93-1.57 1.98-1.48 2.03-1.4 2.07-1.28.8-.46" stroke="#3a414a" stroke-width="3" stroke-linejoin="round" fill="none"/><path d="M160.6 751.8l-14.98-.83 8.2-12.55zM154.44 556.98l-9.34 11.73-5.5-13.95z" stroke="#3a414a" stroke-width="3" fill="#3a414a"/><path d="M318.7 283.83l163.06 201.73" stroke="#3a414a" stroke-width="3" fill="none"/><path d="M319.88 282.94l-2.18 1.75.07-2v-.74l-.07-1.73z" stroke="#3a414a" stroke-width=".05" fill="#3a414a"/><path d="M490.87 496.83l-14-5.4 11.67-9.42z" stroke="#3a414a" stroke-width="3" fill="#3a414a"/><path d="M319.27 536h147.17" stroke="#3a414a" stroke-width="3" stroke-linejoin="round" fill="none"/><path d="M319.3 537.48h-1.58l.05-1.46v-.73l-.04-.77h1.58z" stroke="#3a414a" stroke-width=".05" fill="#3a414a"/><path d="M480.93 536l-13 7.5v-15z" stroke="#3a414a" stroke-width="3" fill="#3a414a"/><path d="M318.7 788.17l163.06-201.73" stroke="#3a414a" stroke-width="3" fill="none"/><path d="M319.88 789.06l-2.2 2.7.1-2.4-.02-.74-.05-1.3z" stroke="#3a414a" stroke-width=".05" fill="#3a414a"/><path d="M490.87 575.17L488.54 590l-11.67-9.44z" stroke="#3a414a" stroke-width="3" fill="#3a414a"/><path d="M648.43 536h116.73" stroke="#3a414a" stroke-width="3" stroke-linejoin="round" fill="none"/><path d="M648.47 537.48h-1.58l.03-1.46v-.73l-.03-.77h1.57z" stroke="#3a414a" stroke-width=".05" fill="#3a414a"/><path d="M779.65 536l-13 7.5v-15z" stroke="#3a414a" stroke-width="3" fill="#3a414a"/><path d="M314.28 814.18l4.38-2.32m4.4-2.3l8.76-4.65m4.4-2.3l8.76-4.64m4.4-2.32l8.76-4.63m4.4-2.3l8.76-4.64m4.4-2.32l8.76-4.63m4.4-2.3l8.76-4.64m4.4-2.32l8.76-4.63m4.4-2.3l8.76-4.64m4.4-2.32l8.76-4.64m4.4-2.3l8.76-4.65m4.4-2.32l8.76-4.63m4.4-2.32l8.76-4.63m4.4-2.32l8.76-4.63m4.4-2.32l8.76-4.63m4.4-2.32l8.76-4.63m4.4-2.32l8.76-4.63m4.38-2.32l8.78-4.63m4.38-2.32l8.78-4.64m4.38-2.3l8.78-4.65m4.38-2.32l8.78-4.64m4.38-2.32l8.78-4.63m4.38-2.33l8.78-4.63m4.38-2.32l8.78-4.63m4.38-2.33l8.78-4.63m4.38-2.32l8.78-4.63m4.38-2.33l8.78-4.64m4.38-2.3l8.77-4.65m4.4-2.3l8.76-4.65m4.4-2.32l8.76-4.62m4.38-2.32l8.77-4.63m4.4-2.32l8.76-4.62m4.4-2.32l8.77-4.63m4.4-2.32l8.76-4.62m4.4-2.32l8.76-4.63m4.38-2.32l4.4-2.3" stroke="#3a414a" fill="none"/><path d="M314.5 814.6l-.9.48.23-.67.2-.62.04-.02z" stroke="#3a414a" stroke-width=".05" fill="#3a414a"/><path d="M786.8 564.6l-8 12.7-7-13.27z" stroke="#3a414a" fill="#3a414a"/><path d="M171.7 243.66a6 6 0 0 1 6-6h117.12a6 6 0 0 1 6 6v78a6 6 0 0 1-6 6h-117.1a6 6 0 0 1-6-6z" fill="none"/><use xlink:href="#a" transform="matrix(1,0,0,1,176.7122839506173,242.66166666666652) translate(22.376543209876544 18.27777777777778)"/><use xlink:href="#b" transform="matrix(1,0,0,1,176.7122839506173,242.66166666666652) translate(8.209876543209887 44.94444444444444)"/><use xlink:href="#c" transform="matrix(1,0,0,1,176.7122839506173,242.66166666666652) translate(80.92592592592592 44.94444444444444)"/><use xlink:href="#d" transform="matrix(1,0,0,1,176.7122839506173,242.66166666666652) translate(17.469135802469133 71.61111111111111)"/><path d="M171.7 497a6 6 0 0 1 6-6h117.12a6 6 0 0 1 6 6v78a6 6 0 0 1-6 6h-117.1a6 6 0 0 1-6-6z" fill="none"/><use xlink:href="#e" transform="matrix(1,0,0,1,176.7122839506173,495.9949999999999) translate(8.827160493827158 31.611111111111114)"/><use xlink:href="#f" transform="matrix(1,0,0,1,176.7122839506173,495.9949999999999) translate(34.75308641975309 58.27777777777778)"/><path d="M171.7 750.33a6 6 0 0 1 6-6h117.12a6 6 0 0 1 6 6v78a6 6 0 0 1-6 6h-117.1a6 6 0 0 1-6-6z" fill="none"/><use xlink:href="#g" transform="matrix(1,0,0,1,176.7122839506173,749.3283333333333) translate(10.679012345679013 18.27777777777778)"/><use xlink:href="#h" transform="matrix(1,0,0,1,176.7122839506173,749.3283333333333) translate(8.858024691358018 44.94444444444444)"/><use xlink:href="#i" transform="matrix(1,0,0,1,176.7122839506173,749.3283333333333) translate(26.7283950617284 71.61111111111111)"/><path d="M500.88 497a6 6 0 0 1 6-6h117.1a6 6 0 0 1 6 6v78a6 6 0 0 1-6 6H506.9a6 6 0 0 1-6-6z" fill="none"/><g><use xlink:href="#j" transform="matrix(1,0,0,1,505.87726088412785,495.9949999999999) translate(17.438271604938265 44.94444444444444)"/></g><path d="M799.6 497a6 6 0 0 1 6-6h117.1a6 6 0 0 1 6 6v78a6 6 0 0 1-6 6H805.6a6 6 0 0 1-6-6z" fill="none"/><g><use xlink:href="#k" transform="matrix(1,0,0,1,804.600046350735,495.9949999999999) translate(16.234567901234563 44.94444444444444)"/></g><defs><path d="M205 0l-28-72H64L36 0H1l101-248h38L239 0h-34zm-38-99l-47-123c-12 45-31 82-46 123h93" id="l"/><path d="M59-47c-2 24 18 29 38 22v24C64 9 27 4 27-40v-127H5v-23h24l9-43h21v43h35v23H59v120" id="m"/><path d="M24-231v-30h32v30H24zM24 0v-190h32V0H24" id="n"/><path d="M84 4C-5 8 30-112 23-190h32v120c0 31 7 50 39 49 72-2 45-101 50-169h31l1 190h-30c-1-10 1-25-2-33-11 22-28 36-60 37" id="o"/><path d="M85-194c31 0 48 13 60 33l-1-100h32l1 261h-30c-2-10 0-23-3-31C134-8 116 4 85 4 32 4 16-35 15-94c0-66 23-100 70-100zm9 24c-40 0-46 34-46 75 0 40 6 74 45 74 42 0 51-32 51-76 0-42-9-74-50-73" id="p"/><path d="M100-194c63 0 86 42 84 106H49c0 40 14 67 53 68 26 1 43-12 49-29l28 8c-11 28-37 45-77 45C44 4 14-33 15-96c1-61 26-98 85-98zm52 81c6-60-76-77-97-28-3 7-6 17-6 28h103" id="q"/><g id="a"><use transform="matrix(0.06172839506172839,0,0,0.06172839506172839,0,0)" xlink:href="#l"/><use transform="matrix(0.06172839506172839,0,0,0.06172839506172839,14.814814814814813,0)" xlink:href="#m"/><use transform="matrix(0.06172839506172839,0,0,0.06172839506172839,20.98765432098765,0)" xlink:href="#m"/><use transform="matrix(0.06172839506172839,0,0,0.06172839506172839,27.16049382716049,0)" xlink:href="#n"/><use transform="matrix(0.06172839506172839,0,0,0.06172839506172839,32.03703703703703,0)" xlink:href="#m"/><use transform="matrix(0.06172839506172839,0,0,0.06172839506172839,38.20987654320987,0)" xlink:href="#o"/><use transform="matrix(0.06172839506172839,0,0,0.06172839506172839,50.55555555555555,0)" xlink:href="#p"/><use transform="matrix(0.06172839506172839,0,0,0.06172839506172839,62.90123456790123,0)" xlink:href="#q"/></g><path d="M100-194c62-1 85 37 85 99 1 63-27 99-86 99S16-35 15-95c0-66 28-99 85-99zM99-20c44 1 53-31 53-75 0-43-8-75-51-75s-53 32-53 75 10 74 51 75" id="r"/><path d="M206 0h-36l-40-164L89 0H53L-1-190h32L70-26l43-164h34l41 164 42-164h31" id="s"/><path d="M141-36C126-15 110 5 73 4 37 3 15-17 15-53c-1-64 63-63 125-63 3-35-9-54-41-54-24 1-41 7-42 31l-33-3c5-37 33-52 76-52 45 0 72 20 72 64v82c-1 20 7 32 28 27v20c-31 9-61-2-59-35zM48-53c0 20 12 33 32 33 41-3 63-29 60-74-43 2-92-5-92 41" id="t"/><path d="M114-163C36-179 61-72 57 0H25l-1-190h30c1 12-1 29 2 39 6-27 23-49 58-41v29" id="u"/><g id="b"><use transform="matrix(0.06172839506172839,0,0,0.06172839506172839,0,0)" xlink:href="#m"/><use transform="matrix(0.06172839506172839,0,0,0.06172839506172839,6.172839506172839,0)" xlink:href="#r"/><use transform="matrix(0.06172839506172839,0,0,0.06172839506172839,18.51851851851852,0)" xlink:href="#s"/><use transform="matrix(0.06172839506172839,0,0,0.06172839506172839,34.50617283950617,0)" xlink:href="#t"/><use transform="matrix(0.06172839506172839,0,0,0.06172839506172839,46.85185185185185,0)" xlink:href="#u"/><use transform="matrix(0.06172839506172839,0,0,0.06172839506172839,54.197530864197525,0)" xlink:href="#p"/></g><path d="M106-169C34-169 62-67 57 0H25v-261h32l-1 103c12-21 28-36 61-36 89 0 53 116 60 194h-32v-121c2-32-8-49-39-48" id="v"/><g id="c"><use transform="matrix(0.06172839506172839,0,0,0.06172839506172839,0,0)" xlink:href="#m"/><use transform="matrix(0.06172839506172839,0,0,0.06172839506172839,6.172839506172839,0)" xlink:href="#v"/><use transform="matrix(0.06172839506172839,0,0,0.06172839506172839,18.51851851851852,0)" xlink:href="#q"/></g><path d="M115-194c53 0 69 39 70 98 0 66-23 100-70 100C84 3 66-7 56-30L54 0H23l1-261h32v101c10-23 28-34 59-34zm-8 174c40 0 45-34 45-75 0-40-5-75-45-74-42 0-51 32-51 76 0 43 10 73 51 73" id="w"/><path d="M108 0H70L1-190h34L89-25l56-165h34" id="x"/><g id="d"><use transform="matrix(0.06172839506172839,0,0,0.06172839506172839,0,0)" xlink:href="#w"/><use transform="matrix(0.06172839506172839,0,0,0.06172839506172839,12.345679012345679,0)" xlink:href="#q"/><use transform="matrix(0.06172839506172839,0,0,0.06172839506172839,24.691358024691358,0)" xlink:href="#v"/><use transform="matrix(0.06172839506172839,0,0,0.06172839506172839,37.03703703703704,0)" xlink:href="#t"/><use transform="matrix(0.06172839506172839,0,0,0.06172839506172839,49.382716049382715,0)" xlink:href="#x"/><use transform="matrix(0.06172839506172839,0,0,0.06172839506172839,60.49382716049382,0)" xlink:href="#n"/><use transform="matrix(0.06172839506172839,0,0,0.06172839506172839,65.37037037037037,0)" xlink:href="#r"/><use transform="matrix(0.06172839506172839,0,0,0.06172839506172839,77.71604938271605,0)" xlink:href="#u"/></g><path d="M185-189c-5-48-123-54-124 2 14 75 158 14 163 119 3 78-121 87-175 55-17-10-28-26-33-46l33-7c5 56 141 63 141-1 0-78-155-14-162-118-5-82 145-84 179-34 5 7 8 16 11 25" id="y"/><path d="M24-231v-30h32v30H24zM-9 49c24 4 33-6 33-30v-209h32V24c2 40-23 58-65 49V49" id="z"/><path d="M96-169c-40 0-48 33-48 73s9 75 48 75c24 0 41-14 43-38l32 2c-6 37-31 61-74 61-59 0-76-41-82-99-10-93 101-131 147-64 4 7 5 14 7 22l-32 3c-4-21-16-35-41-35" id="A"/><g id="e"><use transform="matrix(0.06172839506172839,0,0,0.06172839506172839,0,0)" xlink:href="#y"/><use transform="matrix(0.06172839506172839,0,0,0.06172839506172839,14.814814814814813,0)" xlink:href="#o"/><use transform="matrix(0.06172839506172839,0,0,0.06172839506172839,27.160493827160494,0)" xlink:href="#w"/><use transform="matrix(0.06172839506172839,0,0,0.06172839506172839,39.50617283950617,0)" xlink:href="#z"/><use transform="matrix(0.06172839506172839,0,0,0.06172839506172839,44.382716049382715,0)" xlink:href="#q"/><use transform="matrix(0.06172839506172839,0,0,0.06172839506172839,56.72839506172839,0)" xlink:href="#A"/><use transform="matrix(0.06172839506172839,0,0,0.06172839506172839,67.8395061728395,0)" xlink:href="#m"/><use transform="matrix(0.06172839506172839,0,0,0.06172839506172839,74.01234567901234,0)" xlink:href="#n"/><use transform="matrix(0.06172839506172839,0,0,0.06172839506172839,78.88888888888889,0)" xlink:href="#x"/><use transform="matrix(0.06172839506172839,0,0,0.06172839506172839,90,0)" xlink:href="#q"/></g><path d="M117-194c89-4 53 116 60 194h-32v-121c0-31-8-49-39-48C34-167 62-67 57 0H25l-1-190h30c1 10-1 24 2 32 11-22 29-35 61-36" id="B"/><path d="M210-169c-67 3-38 105-44 169h-31v-121c0-29-5-50-35-48C34-165 62-65 56 0H25l-1-190h30c1 10-1 24 2 32 10-44 99-50 107 0 11-21 27-35 58-36 85-2 47 119 55 194h-31v-121c0-29-5-49-35-48" id="C"/><g id="f"><use transform="matrix(0.06172839506172839,0,0,0.06172839506172839,0,0)" xlink:href="#B"/><use transform="matrix(0.06172839506172839,0,0,0.06172839506172839,12.345679012345679,0)" xlink:href="#r"/><use transform="matrix(0.06172839506172839,0,0,0.06172839506172839,24.691358024691358,0)" xlink:href="#u"/><use transform="matrix(0.06172839506172839,0,0,0.06172839506172839,32.03703703703704,0)" xlink:href="#C"/></g><path d="M30-248c87 1 191-15 191 75 0 78-77 80-158 76V0H30v-248zm33 125c57 0 124 11 124-50 0-59-68-47-124-48v98" id="D"/><g id="g"><use transform="matrix(0.06172839506172839,0,0,0.06172839506172839,0,0)" xlink:href="#D"/><use transform="matrix(0.06172839506172839,0,0,0.06172839506172839,14.814814814814813,0)" xlink:href="#q"/><use transform="matrix(0.06172839506172839,0,0,0.06172839506172839,27.160493827160494,0)" xlink:href="#u"/><use transform="matrix(0.06172839506172839,0,0,0.06172839506172839,34.50617283950617,0)" xlink:href="#A"/><use transform="matrix(0.06172839506172839,0,0,0.06172839506172839,45.61728395061728,0)" xlink:href="#q"/><use transform="matrix(0.06172839506172839,0,0,0.06172839506172839,57.962962962962955,0)" xlink:href="#n"/><use transform="matrix(0.06172839506172839,0,0,0.06172839506172839,62.8395061728395,0)" xlink:href="#x"/><use transform="matrix(0.06172839506172839,0,0,0.06172839506172839,73.9506172839506,0)" xlink:href="#q"/><use transform="matrix(0.06172839506172839,0,0,0.06172839506172839,86.29629629629629,0)" xlink:href="#p"/></g><path d="M24 0v-261h32V0H24" id="E"/><g id="h"><use transform="matrix(0.06172839506172839,0,0,0.06172839506172839,0,0)" xlink:href="#w"/><use transform="matrix(0.06172839506172839,0,0,0.06172839506172839,12.345679012345679,0)" xlink:href="#q"/><use transform="matrix(0.06172839506172839,0,0,0.06172839506172839,24.691358024691358,0)" xlink:href="#v"/><use transform="matrix(0.06172839506172839,0,0,0.06172839506172839,37.03703703703704,0)" xlink:href="#t"/><use transform="matrix(0.06172839506172839,0,0,0.06172839506172839,49.382716049382715,0)" xlink:href="#x"/><use transform="matrix(0.06172839506172839,0,0,0.06172839506172839,60.49382716049382,0)" xlink:href="#n"/><use transform="matrix(0.06172839506172839,0,0,0.06172839506172839,65.37037037037037,0)" xlink:href="#r"/><use transform="matrix(0.06172839506172839,0,0,0.06172839506172839,77.71604938271605,0)" xlink:href="#u"/><use transform="matrix(0.06172839506172839,0,0,0.06172839506172839,85.06172839506173,0)" xlink:href="#t"/><use transform="matrix(0.06172839506172839,0,0,0.06172839506172839,97.40740740740742,0)" xlink:href="#E"/></g><g id="i"><use transform="matrix(0.06172839506172839,0,0,0.06172839506172839,0,0)" xlink:href="#A"/><use transform="matrix(0.06172839506172839,0,0,0.06172839506172839,11.11111111111111,0)" xlink:href="#r"/><use transform="matrix(0.06172839506172839,0,0,0.06172839506172839,23.45679012345679,0)" xlink:href="#B"/><use transform="matrix(0.06172839506172839,0,0,0.06172839506172839,35.80246913580247,0)" xlink:href="#m"/><use transform="matrix(0.06172839506172839,0,0,0.06172839506172839,41.97530864197531,0)" xlink:href="#u"/><use transform="matrix(0.06172839506172839,0,0,0.06172839506172839,49.32098765432099,0)" xlink:href="#r"/><use transform="matrix(0.06172839506172839,0,0,0.06172839506172839,61.666666666666664,0)" xlink:href="#E"/></g><path d="M33 0v-248h34V0H33" id="F"/><g id="j"><use transform="matrix(0.06172839506172839,0,0,0.06172839506172839,0,0)" xlink:href="#F"/><use transform="matrix(0.06172839506172839,0,0,0.06172839506172839,6.172839506172839,0)" xlink:href="#B"/><use transform="matrix(0.06172839506172839,0,0,0.06172839506172839,18.51851851851852,0)" xlink:href="#m"/><use transform="matrix(0.06172839506172839,0,0,0.06172839506172839,24.691358024691358,0)" xlink:href="#q"/><use transform="matrix(0.06172839506172839,0,0,0.06172839506172839,37.03703703703704,0)" xlink:href="#B"/><use transform="matrix(0.06172839506172839,0,0,0.06172839506172839,49.382716049382715,0)" xlink:href="#m"/><use transform="matrix(0.06172839506172839,0,0,0.06172839506172839,55.55555555555556,0)" xlink:href="#n"/><use transform="matrix(0.06172839506172839,0,0,0.06172839506172839,60.4320987654321,0)" xlink:href="#r"/><use transform="matrix(0.06172839506172839,0,0,0.06172839506172839,72.77777777777779,0)" xlink:href="#B"/></g><path d="M160-131c35 5 61 23 61 61C221 17 115-2 30 0v-248c76 3 177-17 177 60 0 33-19 50-47 57zm-97-11c50-1 110 9 110-42 0-47-63-36-110-37v79zm0 115c55-2 124 14 124-45 0-56-70-42-124-44v89" id="G"/><g id="k"><use transform="matrix(0.06172839506172839,0,0,0.06172839506172839,0,0)" xlink:href="#G"/><use transform="matrix(0.06172839506172839,0,0,0.06172839506172839,14.814814814814813,0)" xlink:href="#q"/><use transform="matrix(0.06172839506172839,0,0,0.06172839506172839,27.160493827160494,0)" xlink:href="#v"/><use transform="matrix(0.06172839506172839,0,0,0.06172839506172839,39.50617283950617,0)" xlink:href="#t"/><use transform="matrix(0.06172839506172839,0,0,0.06172839506172839,51.85185185185185,0)" xlink:href="#x"/><use transform="matrix(0.06172839506172839,0,0,0.06172839506172839,62.96296296296296,0)" xlink:href="#n"/><use transform="matrix(0.06172839506172839,0,0,0.06172839506172839,67.8395061728395,0)" xlink:href="#r"/><use transform="matrix(0.06172839506172839,0,0,0.06172839506172839,80.18518518518519,0)" xlink:href="#u"/></g></defs></g></svg>